<svg xmlns="http://www.w3.org/2000/svg" viewBox="0 0 80 80"><rect x="0.8" y="0.8" width="8.4" height="8.4" rx="1.4" fill="#3ddc84" opacity="0.79"/><rect x="0.8" y="10.8" width="8.4" height="8.4" rx="1.4" fill="#3ddc84" opacity="0.79"/><rect x="10.8" y="10.8" width="8.4" height="8.4" rx="1.4" fill="#3ddc84" opacity="0.79"/><rect x="20.8" y="10.8" width="8.4" height="8.4" rx="1.4" fill="#3ddc84" opacity="0.71"/><rect x="30.8" y="10.8" width="8.4" height="8.4" rx="1.4" fill="#3ddc84" opacity="0.71"/><rect x="0.8" y="20.8" width="8.4" height="8.4" rx="1.4" fill="#3ddc84"/><rect x="10.8" y="20.8" width="8.4" height="8.4" rx="1.4" fill="#3ddc84"/><rect x="0.8" y="30.8" width="8.4" height="8.4" rx="1.4" fill="#3ddc84"/><rect x="10.8" y="30.8" width="8.4" height="8.4" rx="1.4" fill="#3ddc84"/><rect x="20.8" y="20.8" width="8.4" height="8.4" rx="1.4" fill="#3ddc84"/><rect x="30.8" y="20.8" width="8.4" height="8.4" rx="1.4" fill="#3ddc84"/><rect x="20.8" y="30.8" width="8.4" height="8.4" rx="1.4" fill="#3ddc84"/><rect x="30.8" y="30.8" width="8.4" height="8.4" rx="1.4" fill="#3ddc84"/><rect x="40.8" y="20.8" width="8.4" height="8.4" rx="1.4" fill="#3ddc84"/><rect x="50.8" y="20.8" width="8.4" height="8.4" rx="1.4" fill="#3ddc84"/><rect x="40.8" y="30.8" width="8.4" height="8.4" rx="1.4" fill="#3ddc84"/><rect x="50.8" y="30.8" width="8.4" height="8.4" rx="1.4" fill="#3ddc84"/><rect x="60.8" y="30.8" width="8.4" height="8.4" rx="1.4" fill="#3ddc84" opacity="0.71"/><rect x="70.8" y="30.8" width="8.4" height="8.4" rx="1.4" fill="#3ddc84" opacity="0.71"/><rect x="0.8" y="40.8" width="8.4" height="8.4" rx="1.4" fill="#3ddc84"/><rect x="10.8" y="40.8" width="8.4" height="8.4" rx="1.4" fill="#3ddc84"/><rect x="0.8" y="50.8" width="8.4" height="8.4" rx="1.4" fill="#3ddc84"/><rect x="10.8" y="50.8" width="8.4" height="8.4" rx="1.4" fill="#3ddc84"/><rect x="20.8" y="40.8" width="8.4" height="8.4" rx="1.4" fill="#3ddc84"/><rect x="30.8" y="40.8" width="8.4" height="8.4" rx="1.4" fill="#3ddc84"/><rect x="20.8" y="50.8" width="8.4" height="8.4" rx="1.4" fill="#3ddc84"/><rect x="30.8" y="50.8" width="8.4" height="8.4" rx="1.4" fill="#3ddc84"/><rect x="40.8" y="40.8" width="8.4" height="8.4" rx="1.4" fill="#3ddc84"/><rect x="50.8" y="40.8" width="8.4" height="8.4" rx="1.4" fill="#3ddc84"/><rect x="40.8" y="50.8" width="8.4" height="8.4" rx="1.4" fill="#3ddc84"/><rect x="50.8" y="50.8" width="8.4" height="8.4" rx="1.4" fill="#3ddc84"/><rect x="60.8" y="40.8" width="8.4" height="8.4" rx="1.4" fill="#3ddc84" opacity="0.71"/><rect x="70.8" y="40.8" width="8.4" height="8.4" rx="1.4" fill="#3ddc84" opacity="0.71"/><rect x="0.8" y="60.8" width="8.4" height="8.4" rx="1.4" fill="#3ddc84" opacity="0.79"/><rect x="10.8" y="60.8" width="8.4" height="8.4" rx="1.4" fill="#3ddc84" opacity="0.79"/><rect x="0.8" y="70.8" width="8.4" height="8.4" rx="1.4" fill="#3ddc84" opacity="0.79"/><rect x="20.8" y="60.8" width="8.4" height="8.4" rx="1.4" fill="#3ddc84" opacity="0.71"/><rect x="30.8" y="60.8" width="8.4" height="8.4" rx="1.4" fill="#3ddc84" opacity="0.71"/></svg>